<svg class="svg-standalone-icon" width="100%" viewBox="65 199.70438908003928 81.0644750252082 70.59122183992145"><g data-paper-data="{&quot;isIcon&quot;:&quot;true&quot;,&quot;iconType&quot;:&quot;icon&quot;,&quot;rawIconId&quot;:&quot;3551055&quot;,&quot;selectedEffects&quot;:{&quot;container&quot;:&quot;&quot;,&quot;transformation&quot;:&quot;&quot;,&quot;pattern&quot;:&quot;&quot;},&quot;isDetailed&quot;:false,&quot;fillRule&quot;:&quot;evenodd&quot;,&quot;bounds&quot;:{&quot;x&quot;:65,&quot;y&quot;:199.70438908003928,&quot;width&quot;:81.0644750252082,&quot;height&quot;:70.59122183992145},&quot;iconStyle&quot;:&quot;standalone&quot;,&quot;suitableAsStandaloneIcon&quot;:true}" fill-rule="evenodd"><path d="M128.59665,215.49802c-3.69187,-9.52009 -12.85357,-15.79363 -23.06441,-15.79363c-10.21084,0 -19.37254,6.27355 -23.06441,15.79363c-10.35166,1.1391 -18.00815,10.17017 -17.43795,20.56864c0.5702,10.3986 9.1681,18.53835 19.58226,18.53887h9.15254v-7.84504h-9.15254c-6.49909,0 -11.76756,-5.26847 -11.76756,-11.76756c0,-6.49909 5.26847,-11.76756 11.76756,-11.76756h3.77869l0.75835,-2.94189c1.90778,-7.4907 8.65321,-12.73354 16.38305,-12.73354c7.72985,0 14.47527,5.24284 16.38305,12.73354l0.75835,2.94189h3.77869c6.49909,0 11.76756,5.26847 11.76756,11.76756c0,6.49909 -5.26847,11.76756 -11.76756,11.76756h-6.53753v7.84504h6.53753c10.41416,-0.00052 19.01206,-8.14027 19.58226,-18.53887c0.5702,-10.39847 -7.08629,-19.42955 -17.43795,-20.56864zM101.60972,255.91304c0,7.94323 6.43934,14.38257 14.38257,14.38257h18.30509v-7.84504h-18.30509c-3.61055,0 -6.53753,-2.92698 -6.53753,-6.53753v-18.30509h-7.84504zM71.53707,262.45057h22.22761v7.84504h-22.22761z" data-paper-data="{&quot;isPathIcon&quot;:true}"></path></g></svg>